<svg version="1.2" xmlns="http://www.w3.org/2000/svg" viewBox="0 0 386 86" width="386" height="86"><style>.a{fill:#fff}</style><path class="a" d="m37.1 63h16.5v-59.3h-16.5v22.3h-20.1v-22.3h-16.5v59.3h16.5v-23.8h20.1zm72.7-23.7c0-15-10.7-24.1-24.7-24.1-14.1 0-24.8 9.1-24.8 24.1 0 15.1 10.6 24.3 24.7 24.3 14 0 24.8-9.2 24.8-24.3zm-32.7 0c0-6.7 3.7-9.8 8-9.8 4.2 0 8 3.1 8 9.8 0 6.8-3.9 10-8.1 10-4.3 0-7.9-3.2-7.9-10zm86.2 0c0-15-10.7-24.1-24.7-24.1-14.1 0-24.8 9.1-24.8 24.1 0 15.1 10.6 24.3 24.7 24.3 14.1 0 24.8-9.2 24.8-24.3zm-32.6 0c0-6.7 3.7-9.8 7.9-9.8 4.2 0 8 3.1 8 9.8 0 6.8-3.9 10-8.1 10-4.3 0-7.8-3.2-7.8-10zm79.1 9.8c-0.1-17.9-25.3-12.6-25.3-19.3 0-1.8 1.5-2.8 4.2-2.8 3.5 0 5.6 1.7 6.1 4.7h14.9c-1.1-9.4-7.8-16.5-20.7-16.5-12.8 0-19.6 6.8-19.6 15 0 17.4 25.1 11.7 25.1 18.6 0 1.7-1.6 3.1-4.4 3.1-3.4 0-6.1-1.7-6.5-4.8h-16c0.7 9.4 9.5 16.5 22.6 16.5 12.2 0 19.6-6.3 19.6-14.5zm8.1 13.9h16.5v-25.4c0-5.4 3-8.6 7.9-8.6 4.7 0 7.7 3.2 7.7 8.6v25.4h16.5v-27.5c0-12.4-6.8-20.2-17.6-20.2-6.8 0-11.7 3.2-14.5 7.2v-21.8h-16.5zm80.9-20.5l-10-26.7h-18.3l19.3 45.2-11.2 24.5h17.9l30-69.7h-18.1zm48.4-0.2c0-7.2 3.8-9.4 10.7-9.4h4.6v-17.6c-6.3 0-11.7 3.6-15.3 8.7v-8.3h-16.5v47.2h16.5zm38.8 12.8c0-4.8-3.8-8.6-9.6-8.6-5.9 0-9.7 3.8-9.7 8.6 0 4.8 3.8 8.5 9.7 8.5 5.8 0 9.6-3.7 9.6-8.5z"/></svg>