<svg version="1.2" xmlns="http://www.w3.org/2000/svg" viewBox="0 0 456 87" width="456" height="87"><style>.a{fill:#fff}</style><path class="a" d="m38.5 64h17v-61h-17v22.9h-20.7v-22.9h-17v61h17v-24.5h20.7zm74.8-24.3c0-15.4-11-24.9-25.5-24.9-14.4 0-25.4 9.5-25.4 24.9 0 15.5 10.9 24.9 25.3 24.9 14.5 0 25.6-9.4 25.6-24.9zm-33.6 0c0-6.9 3.8-10.1 8.1-10.1 4.4 0 8.3 3.2 8.3 10.1 0 7-4 10.2-8.4 10.2-4.4 0-8-3.2-8-10.2zm88.6 0c0-15.4-11-24.9-25.4-24.9-14.5 0-25.5 9.5-25.5 24.9 0 15.5 10.9 24.9 25.4 24.9 14.4 0 25.5-9.4 25.5-24.9zm-33.6 0c0-6.9 3.9-10.1 8.2-10.1 4.3 0 8.2 3.2 8.2 10.1 0 7-4 10.2-8.3 10.2-4.4 0-8.1-3.2-8.1-10.2zm81.4 10c-0.1-18.4-26-12.9-26-19.8 0-1.8 1.5-2.9 4.3-2.9 3.6 0 5.8 1.8 6.3 4.8h15.3c-1.1-9.6-8-17-21.3-17-13.1 0-20.1 7.1-20.1 15.5 0 17.9 25.8 12.1 25.8 19.2 0 1.7-1.7 3.1-4.5 3.1-3.6 0-6.3-1.8-6.7-5h-16.5c0.7 9.7 9.7 17 23.2 17 12.6 0 20.2-6.4 20.2-14.9zm8.3 14.3h17v-26c0-5.7 3.1-9 8.1-9 4.9 0 8 3.3 8 9v26h16.9v-28.3c0-12.7-7-20.7-18-20.7-7.1 0-12.2 3.2-15 7.4v-22.4h-17zm83.2-21.1l-10.2-27.5h-18.9l19.9 46.5-11.6 25.2h18.5l30.8-71.7h-18.6zm30.1-3.3c0 15.5 9.2 24.9 20.7 24.9 6.8 0 11.7-3 14.3-7.3v6.7h16.9v-48.5h-16.9v6.7c-2.6-4.3-7.4-7.3-14.3-7.3-11.5 0-20.7 9.3-20.7 24.8zm35 0c0 6.6-4.1 10.1-8.9 10.1-4.8 0-8.8-3.6-8.8-10.1 0-6.6 4-10 8.8-10 4.8 0 8.9 3.5 8.9 10zm43.6 3.1c0-7.4 3.9-9.7 10.9-9.7h4.7v-18.1c-6.4 0-12 3.8-15.6 9v-8.5h-17v48.5h17zm39.8 13.2c0-4.9-3.9-8.8-9.9-8.8-6 0-9.9 3.9-9.9 8.8 0 4.9 3.9 8.7 9.9 8.7 6 0 9.9-3.8 9.9-8.7z"/></svg>